<?xml version="1.0" encoding="UTF-8"?>
<svg width="166" height="28" viewBox="0 0 166 28" xmlns="http://www.w3.org/2000/svg">
  <path d="M8.11549 0.0119629C2.05513 0.0119629 0 4.33136 0 7.12013C0 9.47531 0 9.85204 0 11.0296C0 14.0198 2.69959 17.427 6.74302 17.427C10.247 17.427 14.5387 17.427 15.2165 17.427C16.1403 17.427 16.3503 18.0407 16.3503 18.434C16.3503 18.8297 16.3503 19.1069 16.3503 19.441C16.3503 19.9741 15.9756 20.448 15.2165 20.448C14.257 20.448 0.417709 20.448 0.417709 20.448V27.6746C0.417709 27.6746 11.6505 27.6746 18.3792 27.6746C23.2437 27.6746 26.0173 23.2889 26.0173 20.3887C26.0173 18.4245 26.0173 17.6544 26.0173 16.42C26.0173 12.2996 22.0383 9.54876 18.0212 9.54876C14.5196 9.54876 10.7626 9.54876 10.0847 9.54876C9.16334 9.54876 8.95091 8.93509 8.95091 8.54177C8.95091 8.14845 8.95091 8.16504 8.95091 7.83095C8.95091 7.29784 9.32804 6.82396 10.0847 6.82396C11.0466 6.82396 24.8239 6.82396 24.8239 6.82396V0.0119629C24.8239 0.0119629 9.30417 0.0119629 8.11549 0.0119629ZM29.4187 0.0119629C29.4187 1.52837 29.4187 17.7468 29.4187 19.0856C29.4187 23.5684 32.6076 27.9708 40.1001 27.9708C44.4443 27.9708 42.0215 27.9708 46.3657 27.9708C54.1948 27.9708 56.8084 23.9878 56.8084 19.0856C56.8084 17.7468 56.8084 1.52837 56.8084 0.0119629C54.0778 0.0119629 47.4398 0.0119629 47.4398 0.0119629C47.4398 0.0119629 47.4398 17.2398 47.4398 18.1378C47.4398 19.4765 46.8932 20.5072 45.0529 20.5072H41.1145C39.2766 20.5072 38.7276 19.5215 38.7276 18.1378C38.7276 17.2398 38.7276 0.0119629 38.7276 0.0119629C38.7276 0.0119629 32.1469 0.0119629 29.4187 0.0119629ZM60.8662 0.0119629V27.6746H81.1549V20.5072H70.1155V0.0119629H60.8662ZM83.6015 0.0711976V6.94243H95.8941L83.4225 20.448V27.6746H107.769V20.448H95.178L107.351 6.88319V0.0711976H83.6015ZM111.349 0.0711976V27.6746H134.025V20.448H120.3V16.8939H131.161V10.0819H120.3V6.82396H133.249V0.0711976H111.349ZM137.367 0.0711976V27.6746H146.019V17.427H146.795L155.388 27.6746H166.01C166.01 27.6746 157.885 18.1757 157.059 17.19C158.796 17.19 163.145 14.7448 163.145 9.7857V7.41631C163.145 5.43313 161.656 0.0711976 154.373 0.0711976H137.367ZM145.78 6.76473H152.344C154.34 6.76473 154.373 8.07974 154.373 9.01565C154.373 10.4728 153.698 10.9704 152.523 10.9704H145.78V6.76473Z" fill="currentColor"/>
</svg>
